<?xml version="1.0" standalone="no"?>
<!DOCTYPE svg PUBLIC "-//W3C//DTD SVG 20010904//EN"
 "http://www.w3.org/TR/2001/REC-SVG-20010904/DTD/svg10.dtd">
<svg version="1.0" xmlns="http://www.w3.org/2000/svg"
 width="900.000000pt" height="500.000000pt" viewBox="0 0 900.000000 500.000000"
 preserveAspectRatio="xMidYMid meet">

<g transform="translate(0.000000,500.000000) scale(0.100000,-0.100000)"
fill="#000000" stroke="none">
<path d="M1140 3559 c-175 -20 -371 -99 -517 -207 -414 -308 -558 -875 -340
-1336 59 -123 113 -202 211 -304 161 -168 440 -314 494 -260 8 8 12 50 12 122
l0 111 -112 0 c-157 0 -204 26 -260 145 -21 44 -52 85 -97 129 -61 60 -64 64
-46 77 25 19 52 17 100 -5 38 -17 56 -34 133 -130 18 -23 51 -50 72 -61 67
-34 220 -21 220 19 0 10 13 43 28 74 l29 57 -36 6 c-56 9 -172 44 -211 64 -99
51 -175 145 -212 264 -18 57 -23 94 -22 191 1 135 12 177 70 261 34 50 35 53
23 98 -14 57 -7 157 15 210 l16 39 48 -6 c27 -4 91 -29 150 -58 l103 -52 97
17 c112 18 218 20 312 5 36 -5 81 -12 101 -16 28 -4 46 1 88 27 60 37 173 79
214 80 32 0 41 -18 57 -113 7 -42 6 -81 -1 -122 -10 -61 -10 -61 25 -114 52
-77 70 -146 69 -271 -1 -86 -6 -120 -27 -184 -64 -188 -184 -278 -429 -321
-37 -6 -38 -7 -22 -25 9 -10 25 -41 36 -69 16 -44 19 -77 19 -245 0 -213 2
-220 60 -218 38 1 199 77 279 132 312 211 501 595 477 967 -17 268 -131 520
-320 708 -183 182 -400 286 -649 314 -108 12 -149 12 -257 0z"/>
<path d="M3545 3181 c-282 -70 -425 -293 -442 -686 -17 -383 89 -640 312 -757
107 -56 193 -72 370 -72 168 1 252 18 370 74 l65 31 0 385 0 384 -257 -2 -258
-3 -3 -129 c-2 -97 1 -131 10 -138 7 -4 55 -8 106 -8 l92 0 0 -145 0 -145 -27
-6 c-44 -11 -195 -9 -239 4 -94 27 -166 114 -199 238 -24 92 -30 273 -12 376
35 202 120 292 300 319 89 13 241 1 317 -26 40 -14 46 -14 56 -1 15 21 58 231
51 249 -7 18 -109 53 -197 67 -105 16 -334 11 -415 -9z"/>
<path d="M5617 3144 c-4 -4 -7 -333 -7 -731 l0 -724 153 3 152 3 3 313 2 312
210 0 210 0 2 -312 3 -313 153 -3 152 -3 0 731 0 730 -149 0 c-127 0 -150 -2
-155 -16 -3 -9 -6 -132 -6 -275 l0 -259 -210 0 -210 0 -2 273 -3 272 -146 3
c-80 1 -148 -1 -152 -4z"/>
<path d="M7855 3138 c-3 -7 -4 -335 -3 -728 l3 -715 112 -3 112 -3 7 36 c3 19
8 35 10 35 3 0 22 -11 42 -25 76 -50 148 -69 267 -70 143 0 200 18 271 89 85
85 123 222 124 443 1 313 -92 475 -293 512 -74 13 -201 -2 -279 -33 l-58 -24
0 233 c0 129 -3 240 -6 249 -5 14 -29 16 -155 16 -111 0 -151 -3 -154 -12z
m561 -705 c14 -9 35 -34 47 -57 20 -37 22 -56 22 -196 0 -175 -13 -222 -70
-250 -43 -21 -152 -17 -209 9 l-46 20 0 226 0 226 37 15 c85 36 171 39 219 7z"/>
<path d="M4485 3111 c-151 -37 -179 -252 -42 -322 31 -17 53 -20 99 -17 70 5
104 27 136 88 27 54 28 109 3 158 -24 47 -50 70 -98 88 -42 15 -54 15 -98 5z"/>
<path d="M4948 2823 l-3 -147 -75 -19 c-41 -10 -77 -20 -79 -23 -8 -8 -7 -172
1 -193 7 -19 15 -21 83 -21 l75 0 0 -247 c0 -294 8 -336 76 -412 67 -74 123
-94 264 -95 72 -1 129 4 153 12 l37 14 0 114 0 114 -70 0 c-76 0 -122 16 -140
49 -6 12 -10 106 -10 235 l0 215 108 3 107 3 3 128 3 127 -110 0 -110 0 -3
143 -3 142 -152 3 -152 3 -3 -148z"/>
<path d="M4375 2668 c-3 -7 -4 -229 -3 -493 l3 -480 151 -3 c150 -2 152 -2
158 20 8 30 8 932 0 952 -5 14 -29 16 -155 16 -111 0 -151 -3 -154 -12z"/>
<path d="M6794 2666 c-3 -9 -4 -183 -2 -388 4 -358 5 -375 26 -430 28 -69 53
-102 103 -134 119 -75 349 -70 508 10 28 14 52 26 54 26 3 0 7 -14 11 -30 l6
-31 102 3 103 3 3 493 2 493 -152 -3 -153 -3 -3 -356 -2 -355 -38 -18 c-41
-20 -145 -32 -186 -22 -14 3 -34 18 -43 33 -16 24 -19 65 -23 373 l-5 345
-153 3 c-127 2 -153 0 -158 -12z"/>
</g>
</svg>
